<svg xmlns="http://www.w3.org/2000/svg" xmlns:xlink="http://www.w3.org/1999/xlink" width="500" zoomAndPan="magnify" viewBox="0 0 375 374.999991" height="500" preserveAspectRatio="xMidYMid meet" version="1.0"><defs><g/><clipPath id="8f3f892e5c"><path d="M 207 278 L 238 278 L 238 308.707031 L 207 308.707031 Z M 207 278 " clip-rule="nonzero"/></clipPath><clipPath id="9ea1276bc8"><path d="M 129.339844 238.207031 L 245.589844 238.207031 L 245.589844 242 L 129.339844 242 Z M 129.339844 238.207031 " clip-rule="nonzero"/></clipPath></defs><rect x="-37.5" width="450" fill="#ffffff" y="-37.499999" height="449.999989" fill-opacity="1"/><rect x="-37.5" width="450" fill="#ffffff" y="-37.499999" height="449.999989" fill-opacity="1"/><path fill="#b747eb" d="M 205.078125 289.363281 L 194.882812 277.992188 C 194.882812 277.992188 190.144531 269.140625 186.683594 264.671875 C 183.21875 260.199219 181.476562 258.871094 173.050781 254.4375 C 164.625 250.007812 159.21875 248.308594 154.222656 248.074219 C 149.230469 247.839844 148.75 247.15625 148.582031 246.382812 C 148.417969 245.609375 148.277344 242.824219 151.339844 242.863281 C 152.976562 242.886719 161.035156 243.199219 169.308594 243.066406 C 176.519531 242.949219 184.289062 243.214844 187.339844 246.042969 C 191.835938 250.21875 198.027344 254.9375 204.484375 253.824219 C 207.792969 253.253906 206.132812 249.9375 208.179688 247.582031 C 210.230469 245.226562 215.9375 242.011719 220.757812 242.667969 C 225.574219 243.328125 223.371094 247.410156 223.371094 247.410156 C 223.371094 247.410156 215.589844 247.394531 214.574219 254.476562 C 213.558594 261.558594 216.625 273.066406 216.625 273.066406 C 216.625 273.066406 219.019531 275.644531 219.019531 275.644531 Z M 181.382812 244.0625 L 191.96875 252.570312 L 191.648438 252.964844 L 181.066406 244.457031 Z M 174.125 245.011719 L 183.460938 249.625 C 185.355469 250.226562 186.980469 250.984375 188.496094 252.117188 L 188.230469 252.546875 L 183.277344 250.101562 C 181.179688 249.4375 178.734375 248.96875 175.71875 248.386719 C 172.664062 247.796875 169.027344 247.097656 164.585938 245.976562 L 164.707031 245.484375 C 169.144531 246.605469 172.769531 247.300781 175.8125 247.886719 C 177.722656 248.253906 179.40625 248.578125 180.921875 248.9375 L 173.902344 245.46875 Z M 174.125 245.011719 " fill-opacity="1" fill-rule="evenodd"/><path fill="#b747eb" d="M 205.082031 291.480469 L 221.035156 275.527344 L 224.859375 279.351562 L 208.90625 295.304688 Z M 205.082031 291.480469 " fill-opacity="1" fill-rule="evenodd"/><g clip-path="url(#8f3f892e5c)"><path fill="#b747eb" d="M 207.503906 299.019531 L 227.890625 278.632812 L 237.789062 288.53125 L 217.402344 308.917969 Z M 207.503906 299.019531 " fill-opacity="1" fill-rule="evenodd"/></g><g clip-path="url(#9ea1276bc8)"><path fill="#b747eb" d="M 129.34375 238.207031 L 245.65625 238.207031 L 245.65625 240.015625 L 243.84375 241.828125 L 131.152344 241.828125 L 129.34375 240.015625 Z M 129.34375 238.207031 " fill-opacity="1" fill-rule="evenodd"/></g><g fill="#130c0e" fill-opacity="1"><g transform="translate(125.408233, 226.923969)"><g><path d="M 62.234375 1.109375 C 51.804688 1.109375 42.25 -1.3125 33.5625 -6.15625 C 24.875 -11 17.976562 -17.765625 12.875 -26.453125 C 7.769531 -35.148438 5.21875 -44.921875 5.21875 -55.765625 C 5.21875 -66.609375 7.769531 -76.347656 12.875 -84.984375 C 17.976562 -93.617188 24.875 -100.359375 33.5625 -105.203125 C 42.25 -110.046875 51.804688 -112.46875 62.234375 -112.46875 C 72.660156 -112.46875 82.21875 -110.046875 90.90625 -105.203125 C 99.59375 -100.359375 106.4375 -93.617188 111.4375 -84.984375 C 116.445312 -76.347656 118.953125 -66.609375 118.953125 -55.765625 C 118.953125 -44.921875 116.421875 -35.148438 111.359375 -26.453125 C 106.304688 -17.765625 99.460938 -11 90.828125 -6.15625 C 82.191406 -1.3125 72.660156 1.109375 62.234375 1.109375 Z M 62.234375 -23.53125 C 71.085938 -23.53125 78.171875 -26.476562 83.484375 -32.375 C 88.804688 -38.28125 91.46875 -46.078125 91.46875 -55.765625 C 91.46875 -65.554688 88.804688 -73.375 83.484375 -79.21875 C 78.171875 -85.0625 71.085938 -87.984375 62.234375 -87.984375 C 53.285156 -87.984375 46.148438 -85.085938 40.828125 -79.296875 C 35.515625 -73.503906 32.859375 -65.660156 32.859375 -55.765625 C 32.859375 -45.972656 35.515625 -38.148438 40.828125 -32.296875 C 46.148438 -26.453125 53.285156 -23.53125 62.234375 -23.53125 Z M 62.234375 -23.53125 "/></g></g></g></svg>